<svg id="visual" viewBox="0 0 900 800" width="900" height="800" xmlns="http://www.w3.org/2000/svg" xmlns:xlink="http://www.w3.org/1999/xlink" version="1.1"><rect x="0" y="0" width="900" height="800" fill="#002233"></rect><path d="M0 677L21.5 653.8C43 630.7 86 584.3 128.8 575.8C171.7 567.3 214.3 596.7 257.2 616.7C300 636.7 343 647.3 385.8 635C428.7 622.7 471.3 587.3 514.2 576.5C557 565.7 600 579.3 642.8 598.7C685.7 618 728.3 643 771.2 628.2C814 613.3 857 558.7 878.5 531.3L900 504L900 801L878.5 801C857 801 814 801 771.2 801C728.3 801 685.7 801 642.8 801C600 801 557 801 514.2 801C471.3 801 428.7 801 385.8 801C343 801 300 801 257.2 801C214.3 801 171.7 801 128.8 801C86 801 43 801 21.5 801L0 801Z" fill="#0066FF" stroke-linecap="round" stroke-linejoin="miter"></path></svg>